<?xml version="1.0" encoding="UTF-8"?>
<svg version="1.1" xmlns="http://www.w3.org/2000/svg" width="48" height="48">
<path d="M0 0 C1.81242052 -0.02687279 3.62495233 -0.04633715 5.4375 -0.0625 C6.44683594 -0.07410156 7.45617187 -0.08570313 8.49609375 -0.09765625 C11 0 11 0 12 1 C12.23828125 3.14453125 12.23828125 3.14453125 12.3125 5.8125 C12.34988281 6.68519531 12.38726562 7.55789062 12.42578125 8.45703125 C11.87601165 11.74051758 10.49361108 12.8900214 8 15 C9.24203695 16.46512126 10.49397056 17.92185645 11.75 19.375 C12.44609375 20.18710937 13.1421875 20.99921875 13.859375 21.8359375 C15.85949643 23.85795807 17.39531129 24.93231229 20 26 C20.38929687 25.34644531 20.77859375 24.69289063 21.1796875 24.01953125 C23 22 23 22 25.4453125 21.57421875 C26.32960938 21.61160156 27.21390625 21.64898438 28.125 21.6875 C29.01445313 21.71199219 29.90390625 21.73648437 30.8203125 21.76171875 C33 22 33 22 34 23 C34.07226502 24.85287502 34.0838122 26.70833878 34.0625 28.5625 C34.05347656 29.57441406 34.04445312 30.58632813 34.03515625 31.62890625 C34.02355469 32.41136719 34.01195312 33.19382813 34 34 C23.36437213 34.70382831 17.92842949 32.63827458 9.8125 25.875 C4.35341936 20.72714584 0.43389747 15.5588161 -0.29296875 7.921875 C-0.31004422 5.25810217 -0.22697625 2.65310021 0 0 Z " fill="#1250D7" transform="translate(7,7)"/>
<path d="M0 0 C5.2688427 0.41324256 8.22944438 1.22944438 12 5 C14.05556739 8.034409 14.20129748 10.37664543 14 14 C13.01 14 12.02 14 11 14 C10.38125 12.3603125 10.38125 12.3603125 9.75 10.6875 C8.36845107 7.47685812 7.14663476 5.71634624 4 4 C1.85266073 3.29485154 1.85266073 3.29485154 0 3 C0 2.01 0 1.02 0 0 Z " fill="#1151D9" transform="translate(27,7)"/>
<path d="M0 0 C5.46835443 0.48607595 5.46835443 0.48607595 7.875 2.8125 C9 5 9 5 9 9 C8.01 9 7.02 9 6 9 C4.98133771 7.34467377 3.98189187 5.67739862 3 4 C2.01 3.67 1.02 3.34 0 3 C0 2.01 0 1.02 0 0 Z " fill="#124ED8" transform="translate(27,12)"/>
<path d="M0 0 C1.32 0.33 2.64 0.66 4 1 C4 1.99 4 2.98 4 4 C2.68 3.67 1.36 3.34 0 3 C0 2.01 0 1.02 0 0 Z " fill="#1250D8" transform="translate(27,17)"/>
</svg>
